<?xml version="1.0" encoding="utf-8"?>
<!-- Generator: Adobe Illustrator 21.1.0, SVG Export Plug-In . SVG Version: 6.00 Build 0)  -->
<svg version="1.1" id="Livello_1" xmlns="http://www.w3.org/2000/svg" xmlns:xlink="http://www.w3.org/1999/xlink" x="0px" y="0px"
	 viewBox="0 0 800 800" style="enable-background:new 0 0 800 800;" xml:space="preserve">
<style type="text/css">
	.st0{fill:#050000;}
	.st1{fill:#AD1717;}
	.st2{fill:#F7F5F5;}
</style>
<path class="st0" d="M379.8,251.2"/>
<path class="st1" d="M330.2,300.3"/>
<g>
	<circle class="st2" cx="380" cy="300.3" r="49.8"/>
	<circle class="st2" cx="314.6" cy="411.5" r="41.7"/>
	<circle class="st2" cx="445.3" cy="411.5" r="41.7"/>
	<circle class="st2" cx="503" cy="508" r="33.7"/>
	<circle class="st2" cx="257.8" cy="508" r="33.7"/>
	<path class="st2" d="M303.6,371.3c26.9-3.5,31.4-10.8,31.4-10.8c12.3-20.7,0-38.9,0-38.9l46,28.5c-9.8-1.4-30.5,7.6-33.3,19.7
		s5.7,26.1,5.7,26.1l-51.1-24.6"/>
	<path class="st2" d="M456.3,371.3c-26.9-3.5-31.4-10.8-31.4-10.8c-12.3-20.7,0-38.9,0-38.9l-46,28.5c9.8-1.4,30.5,7.6,33.3,19.7
		s-5.7,26.1-5.7,26.1l51.1-24.6"/>
	<path class="st2" d="M257.8,474.3c0,0,8.6,1.1,19.2-14.6s1-28.2,1-28.2l36.6,21.7c0,0-16.1,0.9-24.2,14.1
		c-8.1,13.2-3.6,23.5-3.6,23.5L257.8,474.3z"/>
	<path class="st2" d="M502.1,474.3c0,0-8.6,1.1-19.2-14.6s-1-28.2-1-28.2l-36.6,21.7c0,0,16.1,0.9,24.2,14.1
		c8.1,13.2,3.6,23.5,3.6,23.5L502.1,474.3z"/>
</g>
</svg>
